<svg xmlns="http://www.w3.org/2000/svg" version="1.1" xmlns:xlink="http://www.w3.org/1999/xlink"
    xmlns:svgjs="http://svgjs.com/svgjs" width="1440" height="560" preserveAspectRatio="none" viewBox="0 0 1440 560">
    <g mask="url(&quot;#SvgjsMask1000&quot;)" fill="none">
        <rect width="1440" height="560" x="0" y="0" fill="#0e2a47"></rect>
        <path
            d="M -838.9223163207398,108 C -742.92,168.8 -550.92,388 -358.92231632073975,412 C -166.92,436 -70.92,220.2 121.07768367926025,228 C 313.08,235.8 409.08,477.2 601.0776836792602,451 C 793.08,424.8 913.29,107.2 1081.0776836792602,97 C 1248.86,86.8 1368.22,339.4 1440,400"
            stroke="rgba(51, 121, 194, 0.58)" stroke-width="2"></path>
        <path
            d="M -655.3685759390312,307 C -559.37,259.6 -367.37,56.8 -175.36857593903116,70 C 16.63,83.2 112.63,366.2 304.6314240609688,373 C 496.63,379.8 592.63,106.2 784.6314240609688,104 C 976.63,101.8 1133.56,367.4 1264.6314240609688,362 C 1395.71,356.6 1404.93,134 1440,77"
            stroke="rgba(51, 121, 194, 0.58)" stroke-width="2"></path>
        <path
            d="M -47.07953244113338,307 C 48.92,258.8 240.92,30.6 432.9204675588666,66 C 624.92,101.4 720.92,469.6 912.9204675588667,484 C 1104.92,498.4 1200.92,146.8 1392.9204675588667,138 C 1584.92,129.2 1863.5,414.2 1872.9204675588667,440 C 1882.34,465.8 1526.58,301.6 1440,267"
            stroke="rgba(51, 121, 194, 0.58)" stroke-width="2"></path>
        <path
            d="M -391.6082272600303,403 C -295.61,372.8 -103.61,235 88.39177273996975,252 C 280.39,269 376.39,506.2 568.3917727399697,488 C 760.39,469.8 856.39,192.8 1048.3917727399698,161 C 1240.39,129.2 1450.07,311 1528.3917727399698,329 C 1606.71,347 1457.68,266.6 1440,251"
            stroke="rgba(51, 121, 194, 0.58)" stroke-width="2"></path>
    </g>
    <defs>
        <mask id="SvgjsMask1000">
            <rect width="1440" height="560" fill="#ffffff"></rect>
        </mask>
    </defs>
</svg>